<svg xmlns="http://www.w3.org/2000/svg" width="215" height="38" viewBox="0 0 215 38"><path fill="#023" d="M23.097 34.346c0 1.548-.83 2.644-2.076 2.644h-.225l-1.323-.228c-.3-.037-.718-.075-1.283-.075-.643 0-1.208.038-1.623.075l-1.019.115c-.795 0-1.17-.453-1.17-1.36V34.12c-1.325 2.228-3.284 3.359-5.89 3.359C3.842 37.48.52 33.215.52 27.437c0-5.89 3.21-9.854 8.004-9.854 1.928 0 3.662.755 5.287 2.226V17.09c0-.907-.304-1.358-.945-1.358l-.905.075c-.34.113-.643.15-.983.15-.943 0-1.699-.905-1.699-2.113 0-1.624.87-2.417 2.567-2.417.565 0 .943 0 1.206.038 1.022.115 1.698.152 2.043.152l1.435-.077 1.398-.075c1.248 0 1.661.49 1.661 2.039v17.18c0 1.283.225 1.924.718 1.924.15 0 .338-.038.565-.113l.605-.077c1.092.004 1.62.645 1.62 1.928zm-9.516-6.909c0-3.056-1.471-5.097-3.737-5.097-1.849 0-3.134 1.888-3.284 4.91v.49c0 3.059 1.283 4.947 3.284 4.947 2.228 0 3.737-2.078 3.737-5.25zm16.5.983c-.905 0-1.016.075-1.016.793 0 2.116 1.51 3.7 3.587 3.7 1.053 0 2.15-.566 3.246-1.739.756-.792 1.586-1.208 2.492-1.208 1.51 0 2.529.943 2.529 2.264 0 2.909-3.66 5.248-8.232 5.248-6 0-9.852-3.927-9.852-9.968 0-6.08 3.885-10.194 9.627-10.194 5.325 0 8.795 3.323 8.795 8.458 0 2.114-.414 2.644-1.96 2.644h-9.216v.002zm-.828-4.532l.112.378c.078.115.34.152.795.152h4.228c.753 0 .828-.152.828-.605 0-1.32-1.358-2.454-2.907-2.454-1.018 0-1.81.378-2.453 1.17-.413.491-.603.944-.603 1.36zm27.6 7.249c0 3.964-2.493 6.343-6.72 6.343-4.157 0-6.23-2.189-6.23-6.568 0-.718.039-1.776.114-3.172.04-1.396.075-2.454.075-3.172V23.36c0-1.245-.112-1.435-.983-1.435h-.605c-.943 0-1.62-.793-1.62-1.964 0-1.17.717-2.115 1.585-2.115h.718c1.208 0 1.172-.603 1.172-1.549v-1.85c0-1.776.793-2.304 3.247-2.304 1.776 0 2.266.34 2.266 2.039v2.04c0 1.473.115 1.624 1.283 1.624h2.721c1.469 0 2.226.68 2.226 2.078 0 1.32-.68 2-2.04 2h-3.099c-1.054 0-1.091.34-1.091 1.094v1.548l-.038 2.341-.075 2.53-.04 1.057c0 1.436.49 2.189 1.436 2.189.908 0 1.358-.68 1.358-2.001l-.037-.453v-.49l-.04-.378c0-1.36.676-2.038 2.039-2.038 1.586.002 2.378 1.285 2.378 3.814zm8.077-2.717c-.903 0-1.016.075-1.016.793 0 2.116 1.511 3.7 3.59 3.7 1.055 0 2.15-.566 3.248-1.739.751-.792 1.586-1.208 2.49-1.208 1.51 0 2.53.943 2.53 2.264 0 2.909-3.664 5.248-8.231 5.248-6.003 0-9.855-3.927-9.855-9.968 0-6.08 3.887-10.194 9.627-10.194 5.325 0 8.8 3.323 8.8 8.458 0 2.114-.418 2.644-1.966 2.644H64.93v.002zm-.828-4.532l.113.378c.075.115.34.152.793.152h4.23c.752 0 .827-.152.827-.605 0-1.32-1.356-2.454-2.906-2.454-1.02 0-1.813.378-2.456 1.17-.413.491-.6.944-.6 1.36zm37.683 10.723c0 1.586-.755 2.379-2.228 2.379-.414 0-1.019-.038-1.812-.153a13.252 13.252 0 00-1.81-.15c-.68 0-1.359.038-2.004.15a8.58 8.58 0 01-1.435.153c-1.019 0-1.89-.946-1.89-2.039 0-.302.154-.755.456-1.323.19-.263.265-.49.265-.718 0-.302-.265-.83-.83-1.623l-1.248-1.738c-.488-.643-.751-.98-.868-.98-.263 0-.643.225-1.17.717l-1.359 1.246v.755c0 .943.19 1.436.605 1.436.15 0 .378-.038.643-.115.263-.075.488-.113.68-.113 1.016 0 1.546.603 1.546 1.811 0 1.776-.718 2.682-2.151 2.682-.34 0-.91-.038-1.623-.153-.72-.112-1.811-.15-3.21-.15-.792 0-1.435.038-1.963.113-.868.114-1.435.19-1.736.19-1.358 0-2.303-1.02-2.303-2.492 0-1.435.605-2.153 1.852-2.153l.942.227.267.038c.452 0 .678-.718.678-2.114V17.921c0-1.396-.226-2.114-.643-2.114-.19 0-.415.038-.678.15-.15.04-.342.078-.605.078-1.208 0-1.813-.68-1.813-2.079 0-1.698.793-2.529 2.418-2.529.413 0 .753.038 1.093.076.793.114 1.434.187 1.889.187.338 0 .905-.037 1.658-.15.566-.075.983-.113 1.248-.113.793 0 1.208.49 1.208 1.436v12.836l1.776-1.548c.302-.265 1.886-1.473 1.886-2.116 0-.187-.113-.415-.34-.605l-.6-.565c-.341-.303-.493-.718-.493-1.283 0-1.17.642-1.738 1.963-1.738.453 0 1.133.037 2.076.152.945.113 1.624.15 2.116.15.718 0 1.623-.04 2.719-.15a37.91 37.91 0 011.698-.152c1.473 0 2.227.755 2.227 2.266 0 1.473-.566 2.188-1.737 2.188a3.88 3.88 0 01-.828-.112c-.342-.076-.567-.113-.757-.113-.338 0-.906.263-1.661.83l-1.586 1.17c-.643.491-.983.871-.983 1.134a.7.7 0 00.153.415l.338.49 2.944 4.645c.793 1.283 1.435 1.926 1.928 1.926l.603-.113.793-.112c1.126.002 1.696.72 1.696 2.153zm16.01-3.474c0 3.964-2.493 6.343-6.72 6.343-4.155 0-6.231-2.189-6.231-6.568 0-.718.037-1.776.113-3.172.04-1.396.075-2.454.075-3.172V23.36c0-1.245-.113-1.435-.981-1.435h-.605c-.943 0-1.623-.793-1.623-1.964 0-1.17.717-2.115 1.587-2.115h.718c1.206 0 1.17-.603 1.17-1.549v-1.85c0-1.776.796-2.304 3.25-2.304 1.773 0 2.265.34 2.265 2.039v2.04c0 1.473.113 1.624 1.28 1.624h2.722c1.471 0 2.227.68 2.227 2.078 0 1.32-.68 2-2.04 2h-3.1c-1.057 0-1.093.34-1.093 1.094v1.548l-.041 2.341-.074 2.53-.04 1.057c0 1.436.493 2.189 1.434 2.189.91 0 1.36-.68 1.36-2.001l-.037-.453v-.49l-.037-.378c0-1.36.678-2.038 2.038-2.038 1.588.002 2.383 1.285 2.383 3.814zm20.31-3.925c0 6.458-3.511 10.27-9.514 10.27-6.23 0-9.78-3.7-9.78-10.082 0-6.343 3.547-10.082 9.625-10.082 6.01 0 9.67 3.739 9.67 9.894zm-6.078.188c0-3.624-1.208-5.436-3.589-5.436-2.224 0-3.584 2.077-3.584 5.436 0 3.436 1.358 5.437 3.662 5.437 2.34 0 3.511-1.813 3.511-5.437zm25.335-5.438c0 2.076-1.358 3.55-3.21 3.55-1.395 0-2.53-1.019-2.53-2.342 0-.34.15-.83.492-1.473h-.227c-3.36 0-4.08 3.89-4.08 7.627v1.435c0 .906.078 1.473.228 1.738.115.15.265.226.53.226.226 0 .526-.038.941-.15.415-.113.72-.153.906-.153 1.097 0 2.003.908 2.003 2.001 0 1.473-1.135 2.567-2.53 2.567-.379 0-1.092-.076-2.115-.19a20.986 20.986 0 00-2.378-.113c-.944 0-1.812.038-2.53.113-1.207.114-1.963.19-2.228.19-1.548 0-2.34-.83-2.34-2.53 0-1.397.604-2.115 1.812-2.115.186 0 .416.037.68.115.263.112.451.15.566.15.415 0 .64-.718.64-2.114v-6.118c0-1.435-.223-2.153-.64-2.153l-.565.113c-.305.115-.533.152-.68.152-1.209 0-1.814-.68-1.814-2.076 0-1.51.908-2.568 2.153-2.568.265 0 .603.037 1.058.152.451.113.868.15 1.281.15.305 0 .756-.04 1.323-.15a6.87 6.87 0 011.284-.152c.792 0 1.172.377 1.172 1.17v3.21c.718-2.567 1.924-4.91 5.888-4.91 2.759.004 4.91 2.042 4.91 4.648z"/><path fill="#5BB" d="M113.392 8.483c-.603-.603-.642-1.548-.037-2.15 3.432-3.778 8.984-5.929 14.837-5.929s11.25 2.154 14.877 5.928c.603.605.526 1.548-.075 2.151a1.459 1.459 0 01-1.02.416c-.413 0-.756-.15-1.096-.453-3.021-3.21-7.663-4.983-12.684-4.983-4.987 0-9.702 1.774-12.686 4.983-.53.603-1.513.603-2.116.037zm14.802-.037c-4.077 0-7.701 1.51-10.197 4.117-.642.642-1.62.68-2.188.075-.566-.566-.566-1.586 0-2.19 3.019-3.133 7.515-4.909 12.385-4.909 4.83 0 9.402 1.774 12.421 4.91.49.603.49 1.623-.073 2.189-.34.34-.72.452-1.097.452-.378 0-.828-.114-1.093-.527-2.381-2.607-6.118-4.117-10.158-4.117zm9.402 6.115c.49.68.49 1.549-.115 2.191-.34.226-.642.34-1.018.34-.38 0-.83-.187-1.133-.452-1.698-1.964-4.302-2.982-7.136-2.982-2.869 0-5.437 1.018-7.098 2.982-.566.605-1.513.642-2.151.114-.678-.642-.72-1.51-.115-2.19 2.266-2.492 5.627-4.002 9.364-4.002 3.662 0 7.136 1.508 9.402 4zm24.58 18.955a3.803 3.803 0 00-3.812-3.815 3.801 3.801 0 00-3.815 3.815c0 2.115 1.697 3.851 3.815 3.851 2.113.002 3.812-1.736 3.812-3.851zm16.122-15.858c1.661 0 2.909-1.133 2.909-2.644 0-2.416-2.38-4.002-6.003-4.002-4.342 0-7.098 2.154-7.25 5.626-.04 1.057-.193 1.208-1.06 1.208h-.679c-1.396 0-2.076.717-2.076 2.19 0 1.321.68 1.964 2.001 1.964h.908l.49.075c.223.075.338.378.338.906v7.515c0 1.396-.225 2.114-.678 2.114-.113 0-.267-.038-.528-.15a2.483 2.483 0 00-.68-.115c-1.248 0-1.85.718-1.85 2.116 0 1.51.944 2.529 2.338 2.529.267 0 .91-.076 2.005-.19.643-.075 1.51-.113 2.565-.113.945 0 1.698.038 2.19.075l2.304.228c1.32 0 2.264-1.02 2.264-2.417 0-1.395-.603-2.076-1.776-2.076a3.21 3.21 0 00-.868.113l-.678.077c-.91 0-.83-.49-.83-2.113v-7.591c0-.643.263-.981.83-.981h1.244c1.4 0 2.078-.718 2.078-2.116 0-1.358-.718-2.038-2.189-2.038h-1.133c-.567 0-.83-.226-.83-.718v-.755c0-1.17.603-1.776 1.848-1.776.267 0 .53.038.758.15-.19.378-.305.718-.305.983.002 1.095.983 1.926 2.343 1.926zm8.947 1.323c0-.756-.338-1.133-.98-1.133a6.89 6.89 0 00-1.323.152 7.69 7.69 0 01-1.358.15c-.34 0-.718-.04-1.133-.112-.679-.115-1.094-.19-1.246-.19-1.358 0-2.266 1.058-2.266 2.529 0 1.395.603 2.115 1.811 2.115.152 0 .378-.037.68-.152l.566-.113c.413 0 .642.718.642 2.154v6.117c0 1.396-.227 2.114-.642 2.114-.113 0-.303-.038-.566-.15a2.47 2.47 0 00-.68-.115c-1.208 0-1.811.718-1.811 2.153 0 1.473.908 2.492 2.303 2.492.263 0 .906-.075 1.924-.19a14.546 14.546 0 011.776-.113c.415 0 1.058.038 1.928.15.826.115 1.47.153 1.886.153 1.396 0 2.076-.83 2.076-2.454 0-1.133-.49-1.776-1.473-1.964-.795-.152-.905-.264-.905-1.057v-4.568c0-3.059 1.093-4.567 3.323-4.567 1.774 0 2.34.943 2.34 3.812v4.267c0 .302.152 1.963-.72 2.151-.791.19-1.169.87-1.169 2.001 0 1.586.603 2.379 1.85 2.379a7.54 7.54 0 001.36-.153 7.007 7.007 0 011.32-.15c.265 0 .83.075 1.66.19.493.075.908.113 1.173.113 1.398 0 2.116-.87 2.116-2.567 0-1.095-.38-1.698-1.172-1.888-.34-.075-.528-.227-.603-.453-.076-.227-.115-.755-.115-1.623v-3.512c0-3.059 1.058-4.567 3.209-4.567 1.926 0 2.456.98 2.456 4.19v3.889c0 .907-.04 1.473-.115 1.66-.113.188-.378.34-.87.416-.945.188-1.394.83-1.394 2 0 1.397.864 2.455 2.074 2.455.305 0 .83-.038 1.588-.153.751-.112 1.546-.15 2.341-.15.64 0 1.17.038 1.586.075l.83.115 1.094.113c1.32 0 2.19-1.058 2.19-2.606 0-1.323-.567-1.964-1.662-1.964-.265 0-.453.04-.566.077l-.603.113c-.49 0-.72-.64-.72-1.924v-5.777c0-4.795-1.773-7.591-6.566-7.591-2.379 0-3.814.68-6.345 2.831-1.246-1.888-2.87-2.831-4.795-2.831-2.304 0-4.417 1.133-6.306 3.399V18.98h.002z"/></svg>